<svg xmlns="http://www.w3.org/2000/svg" viewBox="0 0 64 64" fill="none">
  <defs>
    <linearGradient id="faviconGradient" x1="0" y1="0" x2="1" y2="1">
      <stop offset="0%" stop-color="#9B22EE" />
      <stop offset="50%" stop-color="#F97316" />
      <stop offset="100%" stop-color="#FACC15" />
    </linearGradient>
  </defs>
  <rect width="64" height="64" rx="16" fill="#050508" />
  <path d="M32 14.5c-5.5 9.3-6.1 15-5.2 20.5.9 5.8-1.4 12.7-6.1 17.2-4.8 4.4-11.2 4.9-19.8 4.7 5.2-7.4 10.2-11.6 13.9-15.8 6.4-8 9.6-16.4 11.4-25.6 1.7-8.2 1.3-15.6 5.5-22.3 3.4 3.7 4.5 8.3 4.6 13.3.2 8.1-2.7 15.9-6.4 22.9-3.7 7-7.7 14.4-7.1 21.6.6 7.1 4.9 13.9 12.6 15.5 4 1 7.8.1 11.7-1.5 4.3-1.7 8.3-4.5 11-8.1 3-4 4.3-9.4 3.8-14.7-.6-6.6-3.6-12.6-6.9-18.2-3.8-6.9-8-13.8-10.7-21.5C33.4 15.7 32.7 15 32 14.5Z" fill="url(#faviconGradient)" />
  <circle cx="32" cy="42" r="10" fill="#000" opacity="0.2" />
  <circle cx="32" cy="40" r="8" fill="#fff" opacity="0.85" />
</svg>
