<svg xmlns="http://www.w3.org/2000/svg" viewBox="0 0 200 200" fill="none">
  <defs>
    <linearGradient id="flameGradient" x1="0" y1="0" x2="1" y2="1">
      <stop offset="0%" stop-color="#9B22EE" />
      <stop offset="40%" stop-color="#F97316" />
      <stop offset="100%" stop-color="#FBBF24" />
    </linearGradient>
    <radialGradient id="innerGlow" cx="0.5" cy="0.5" r="0.7">
      <stop offset="0%" stop-color="#FFFFFF" stop-opacity="0.95" />
      <stop offset="40%" stop-color="#F97316" stop-opacity="0.4" />
      <stop offset="100%" stop-color="#9B22EE" stop-opacity="0" />
    </radialGradient>
  </defs>
  <rect width="200" height="200" rx="40" fill="#050508" />
  <path
    d="M154.5 25.3c-16.3 27.8-18 44.9-15.2 61.4 2.9 17.4-4.3 38.1-18.5 51.7-14.6 13.9-34.4 15.6-60.9 14.8-15.1-.5-30.4-4.6-41.2-13.8-10.7-9.1-16.8-22.8-14.6-38.5 2.2-16.1 14.1-29.4 25.3-41.1 11.6-12.0 19.0-24.8 22.4-37.7 3.4-13.1 2.6-24.9 10.9-35.6 6.8-8.7 19.5-14.5 32.4-13.4 12.1 1.0 24.9 8.5 31.0 19.7 6.4 11.6 6.3 24.9 3.5 37.9-2.6 12.2-8.4 23.8-14.1 34.6-5.4 10.3-11.1 21.0-10.3 31.6.8 10.9 7.4 21.4 19.1 23.8 6.0 1.2 11.8.2 17.8-2.1 6.3-2.4 12.2-6.4 16.2-11.6 4.4-5.7 6.4-13.3 5.7-20.9-.9-9.7-5.7-18.6-10.9-26.8-5.9-9.2-12.3-18.4-16.5-28.6-4.7-11.6-5.3-23.6-1.7-35.3 3.1-10.5 9.7-20.1 19.4-26.4 2.2-1.4 4.7-2.6 7.4-3.4 6.0-1.7 12.6-1.8 18.7-.8 11.2 2.0 20.2 7.9 27.0 16.6 13.0 15.4 17.1 36.6 15.4 56.2-1.9 22.7-10.6 44.8-25.9 62.1-11.6 13.5-26.4 23.0-42.6 27.8-15.3 4.6-31.0 6.0-46.3 5.2-10.4-.5-20.9-1.9-31.1-4.4-5.3-1.2-10.7-2.7-15.7-5.2-16.8-7.8-28.5-25.4-30.8-43.8-2.9-24.1 11.7-44.5 26.8-61.3 13.8-15.2 27.0-30.8 35.2-49.8 7.8-18.0 8.3-36.7 5.7-55.5-1.1-7.9-3.6-15.8-8.8-22.0-5.6-6.7-14.4-10.4-23.1-9.3-9.8 1.2-18.5 7.9-23.0 16.8-9.1 18.2-3.2 39.3 2.6 57.0 8.3 25.6 22.7 48.5 42.1 67.9 8.0 7.8 16.5 15.2 25.8 21.6 12.3 8.9 26.1 15.2 40.8 17.1 18.0 2.3 36.7.0 53.3-7.7 18.4-8.4 34.5-22.2 47.0-38.8 13.1-17.3 23.3-37.3 26.8-58.9 2.9-17.1 2.8-34.8-2.2-51.5-4.8-16.1-14.5-30.8-28.7-40.4-15.2-10.3-33.4-15.2-51.4-13.3-18.0 1.9-35.1 10.6-47.0 24.3-5.8 6.6-10.5 14.4-13.9 22.4-4.0 9.2-5.8 18.8-6.5 28.5-.9 13.2 0.9 26.4 3.2 39.5 1.1 6.8 2.4 13.7 4.9 20.1 2.2 5.6 5.1 10.9 9.0 15.7 5.4 6.9 11.8 13.0 18.6 18.2 6.7 5.1 13.9 9.5 21.8 12.0 10.3 3.3 21.4 4.0 32.2 2.0 8.5-1.6 16.7-4.9 24.3-9.3 10.8-6.4 20.2-15.4 28.1-25.3 9.4-11.6 17.6-23.8 24.0-36.9 7.0-14.0 12.6-28.6 16.0-43.6 3.3-14.3 4.3-29.1 2.2-43.7-1.7-12.2-5.9-23.9-13.0-34.2"
    fill="url(#flameGradient)"
  />
  <circle cx="100" cy="120" r="33" fill="#000" opacity="0.15" />
  <circle cx="100" cy="114" r="29" fill="url(#innerGlow)" />
  <circle cx="82" cy="74" r="15" fill="#fff" opacity="0.9" />
  <circle cx="118" cy="74" r="15" fill="#fff" opacity="0.9" />
  <circle cx="100" cy="52" r="18" fill="#fff" opacity="0.95" />
</svg>
